G04 #@! TF.GenerationSoftware,KiCad,Pcbnew,5.1.5-52549c5~84~ubuntu18.04.1*
G04 #@! TF.CreationDate,2020-02-25T14:57:26-08:00*
G04 #@! TF.ProjectId,NeutrikSpeakon,4e657574-7269-46b5-9370-65616b6f6e2e,rev?*
G04 #@! TF.SameCoordinates,Original*
G04 #@! TF.FileFunction,Legend,Top*
G04 #@! TF.FilePolarity,Positive*
%FSLAX46Y46*%
G04 Gerber Fmt 4.6, Leading zero omitted, Abs format (unit mm)*
G04 Created by KiCad (PCBNEW 5.1.5-52549c5~84~ubuntu18.04.1) date 2020-02-25 14:57:26*
%MOMM*%
%LPD*%
G04 APERTURE LIST*
%ADD10C,0.120000*%
%ADD11C,0.150000*%
G04 APERTURE END LIST*
D10*
X135360555Y-115000000D02*
G75*
G03X135360555Y-115000000I-360555J0D01*
G01*
D11*
X126427380Y-120828571D02*
X125427380Y-120828571D01*
X126427380Y-120257142D01*
X125427380Y-120257142D01*
X126427380Y-119304761D02*
X126427380Y-119780952D01*
X125427380Y-119780952D01*
X125427380Y-118685714D02*
X126141666Y-118685714D01*
X126284523Y-118733333D01*
X126379761Y-118828571D01*
X126427380Y-118971428D01*
X126427380Y-119066666D01*
X125522619Y-118257142D02*
X125475000Y-118209523D01*
X125427380Y-118114285D01*
X125427380Y-117876190D01*
X125475000Y-117780952D01*
X125522619Y-117733333D01*
X125617857Y-117685714D01*
X125713095Y-117685714D01*
X125855952Y-117733333D01*
X126427380Y-118304761D01*
X126427380Y-117685714D01*
X126427380Y-117257142D02*
X125427380Y-117257142D01*
X126141666Y-116923809D01*
X125427380Y-116590476D01*
X126427380Y-116590476D01*
X126427380Y-116114285D02*
X125427380Y-116114285D01*
X125427380Y-115876190D01*
X125475000Y-115733333D01*
X125570238Y-115638095D01*
X125665476Y-115590476D01*
X125855952Y-115542857D01*
X125998809Y-115542857D01*
X126189285Y-115590476D01*
X126284523Y-115638095D01*
X126379761Y-115733333D01*
X126427380Y-115876190D01*
X126427380Y-116114285D01*
X126046428Y-115114285D02*
X126046428Y-114352380D01*
X125427380Y-114019047D02*
X126427380Y-113685714D01*
X125427380Y-113352380D01*
X126427380Y-112257142D02*
X125427380Y-112257142D01*
X125427380Y-111876190D01*
X125475000Y-111780952D01*
X125522619Y-111733333D01*
X125617857Y-111685714D01*
X125760714Y-111685714D01*
X125855952Y-111733333D01*
X125903571Y-111780952D01*
X125951190Y-111876190D01*
X125951190Y-112257142D01*
X126332142Y-110685714D02*
X126379761Y-110733333D01*
X126427380Y-110876190D01*
X126427380Y-110971428D01*
X126379761Y-111114285D01*
X126284523Y-111209523D01*
X126189285Y-111257142D01*
X125998809Y-111304761D01*
X125855952Y-111304761D01*
X125665476Y-111257142D01*
X125570238Y-111209523D01*
X125475000Y-111114285D01*
X125427380Y-110971428D01*
X125427380Y-110876190D01*
X125475000Y-110733333D01*
X125522619Y-110685714D01*
X125903571Y-109923809D02*
X125951190Y-109780952D01*
X125998809Y-109733333D01*
X126094047Y-109685714D01*
X126236904Y-109685714D01*
X126332142Y-109733333D01*
X126379761Y-109780952D01*
X126427380Y-109876190D01*
X126427380Y-110257142D01*
X125427380Y-110257142D01*
X125427380Y-109923809D01*
X125475000Y-109828571D01*
X125522619Y-109780952D01*
X125617857Y-109733333D01*
X125713095Y-109733333D01*
X125808333Y-109780952D01*
X125855952Y-109828571D01*
X125903571Y-109923809D01*
X125903571Y-110257142D01*
X128077380Y-118400000D02*
X127077380Y-118400000D01*
X127791666Y-118066666D01*
X127077380Y-117733333D01*
X128077380Y-117733333D01*
X127077380Y-116971428D02*
X127791666Y-116971428D01*
X127934523Y-117019047D01*
X128029761Y-117114285D01*
X128077380Y-117257142D01*
X128077380Y-117352380D01*
X127982142Y-115923809D02*
X128029761Y-115971428D01*
X128077380Y-116114285D01*
X128077380Y-116209523D01*
X128029761Y-116352380D01*
X127934523Y-116447619D01*
X127839285Y-116495238D01*
X127648809Y-116542857D01*
X127505952Y-116542857D01*
X127315476Y-116495238D01*
X127220238Y-116447619D01*
X127125000Y-116352380D01*
X127077380Y-116209523D01*
X127077380Y-116114285D01*
X127125000Y-115971428D01*
X127172619Y-115923809D01*
X127172619Y-114780952D02*
X127125000Y-114733333D01*
X127077380Y-114638095D01*
X127077380Y-114400000D01*
X127125000Y-114304761D01*
X127172619Y-114257142D01*
X127267857Y-114209523D01*
X127363095Y-114209523D01*
X127505952Y-114257142D01*
X128077380Y-114828571D01*
X128077380Y-114209523D01*
X127077380Y-113590476D02*
X127077380Y-113495238D01*
X127125000Y-113400000D01*
X127172619Y-113352380D01*
X127267857Y-113304761D01*
X127458333Y-113257142D01*
X127696428Y-113257142D01*
X127886904Y-113304761D01*
X127982142Y-113352380D01*
X128029761Y-113400000D01*
X128077380Y-113495238D01*
X128077380Y-113590476D01*
X128029761Y-113685714D01*
X127982142Y-113733333D01*
X127886904Y-113780952D01*
X127696428Y-113828571D01*
X127458333Y-113828571D01*
X127267857Y-113780952D01*
X127172619Y-113733333D01*
X127125000Y-113685714D01*
X127077380Y-113590476D01*
X127172619Y-112876190D02*
X127125000Y-112828571D01*
X127077380Y-112733333D01*
X127077380Y-112495238D01*
X127125000Y-112400000D01*
X127172619Y-112352380D01*
X127267857Y-112304761D01*
X127363095Y-112304761D01*
X127505952Y-112352380D01*
X128077380Y-112923809D01*
X128077380Y-112304761D01*
X127077380Y-111685714D02*
X127077380Y-111590476D01*
X127125000Y-111495238D01*
X127172619Y-111447619D01*
X127267857Y-111400000D01*
X127458333Y-111352380D01*
X127696428Y-111352380D01*
X127886904Y-111400000D01*
X127982142Y-111447619D01*
X128029761Y-111495238D01*
X128077380Y-111590476D01*
X128077380Y-111685714D01*
X128029761Y-111780952D01*
X127982142Y-111828571D01*
X127886904Y-111876190D01*
X127696428Y-111923809D01*
X127458333Y-111923809D01*
X127267857Y-111876190D01*
X127172619Y-111828571D01*
X127125000Y-111780952D01*
X127077380Y-111685714D01*
X133042857Y-108171428D02*
X133804761Y-108171428D01*
X133423809Y-108552380D02*
X133423809Y-107790476D01*
X134804761Y-108552380D02*
X134233333Y-108552380D01*
X134519047Y-108552380D02*
X134519047Y-107552380D01*
X134423809Y-107695238D01*
X134328571Y-107790476D01*
X134233333Y-107838095D01*
X135852380Y-107552380D02*
X136423809Y-107552380D01*
X136138095Y-108552380D02*
X136138095Y-107552380D01*
X136757142Y-108552380D02*
X136757142Y-107552380D01*
X137233333Y-108552380D02*
X137233333Y-107552380D01*
X137614285Y-107552380D01*
X137709523Y-107600000D01*
X137757142Y-107647619D01*
X137804761Y-107742857D01*
X137804761Y-107885714D01*
X137757142Y-107980952D01*
X137709523Y-108028571D01*
X137614285Y-108076190D01*
X137233333Y-108076190D01*
X143971428Y-118604761D02*
X143971428Y-117842857D01*
X144352380Y-116842857D02*
X144352380Y-117414285D01*
X144352380Y-117128571D02*
X143352380Y-117128571D01*
X143495238Y-117223809D01*
X143590476Y-117319047D01*
X143638095Y-117414285D01*
X144304761Y-115700000D02*
X144352380Y-115557142D01*
X144352380Y-115319047D01*
X144304761Y-115223809D01*
X144257142Y-115176190D01*
X144161904Y-115128571D01*
X144066666Y-115128571D01*
X143971428Y-115176190D01*
X143923809Y-115223809D01*
X143876190Y-115319047D01*
X143828571Y-115509523D01*
X143780952Y-115604761D01*
X143733333Y-115652380D01*
X143638095Y-115700000D01*
X143542857Y-115700000D01*
X143447619Y-115652380D01*
X143400000Y-115604761D01*
X143352380Y-115509523D01*
X143352380Y-115271428D01*
X143400000Y-115128571D01*
X144352380Y-114223809D02*
X144352380Y-114700000D01*
X143352380Y-114700000D01*
X143828571Y-113890476D02*
X143828571Y-113557142D01*
X144352380Y-113414285D02*
X144352380Y-113890476D01*
X143352380Y-113890476D01*
X143352380Y-113414285D01*
X143828571Y-112985714D02*
X143828571Y-112652380D01*
X144352380Y-112509523D02*
X144352380Y-112985714D01*
X143352380Y-112985714D01*
X143352380Y-112509523D01*
X143352380Y-112223809D02*
X144352380Y-111890476D01*
X143352380Y-111557142D01*
X143828571Y-111223809D02*
X143828571Y-110890476D01*
X144352380Y-110747619D02*
X144352380Y-111223809D01*
X143352380Y-111223809D01*
X143352380Y-110747619D01*
X130919047Y-106252380D02*
X130919047Y-105252380D01*
X131395238Y-106252380D02*
X131395238Y-105252380D01*
X131966666Y-106252380D01*
X131966666Y-105252380D01*
X132442857Y-106252380D02*
X132442857Y-105252380D01*
X132823809Y-105252380D01*
X132919047Y-105300000D01*
X132966666Y-105347619D01*
X133014285Y-105442857D01*
X133014285Y-105585714D01*
X132966666Y-105680952D01*
X132919047Y-105728571D01*
X132823809Y-105776190D01*
X132442857Y-105776190D01*
X133442857Y-105252380D02*
X133442857Y-106061904D01*
X133490476Y-106157142D01*
X133538095Y-106204761D01*
X133633333Y-106252380D01*
X133823809Y-106252380D01*
X133919047Y-106204761D01*
X133966666Y-106157142D01*
X134014285Y-106061904D01*
X134014285Y-105252380D01*
X134347619Y-105252380D02*
X134919047Y-105252380D01*
X134633333Y-106252380D02*
X134633333Y-105252380D01*
X135966666Y-105204761D02*
X135109523Y-106490476D01*
X136157142Y-105252380D02*
X136728571Y-105252380D01*
X136442857Y-106252380D02*
X136442857Y-105252380D01*
X137061904Y-106252380D02*
X137061904Y-105252380D01*
X137061904Y-105728571D02*
X137633333Y-105728571D01*
X137633333Y-106252380D02*
X137633333Y-105252380D01*
X138680952Y-106252380D02*
X138347619Y-105776190D01*
X138109523Y-106252380D02*
X138109523Y-105252380D01*
X138490476Y-105252380D01*
X138585714Y-105300000D01*
X138633333Y-105347619D01*
X138680952Y-105442857D01*
X138680952Y-105585714D01*
X138633333Y-105680952D01*
X138585714Y-105728571D01*
X138490476Y-105776190D01*
X138109523Y-105776190D01*
X139109523Y-105252380D02*
X139109523Y-106061904D01*
X139157142Y-106157142D01*
X139204761Y-106204761D01*
X139300000Y-106252380D01*
X139490476Y-106252380D01*
X139585714Y-106204761D01*
X139633333Y-106157142D01*
X139680952Y-106061904D01*
X139680952Y-105252380D01*
X132842857Y-100571428D02*
X133604761Y-100571428D01*
X133223809Y-100952380D02*
X133223809Y-100190476D01*
X134604761Y-100952380D02*
X134033333Y-100952380D01*
X134319047Y-100952380D02*
X134319047Y-99952380D01*
X134223809Y-100095238D01*
X134128571Y-100190476D01*
X134033333Y-100238095D01*
X135652380Y-99952380D02*
X136223809Y-99952380D01*
X135938095Y-100952380D02*
X135938095Y-99952380D01*
X136557142Y-100952380D02*
X136557142Y-99952380D01*
X137033333Y-100952380D02*
X137033333Y-99952380D01*
X137414285Y-99952380D01*
X137509523Y-100000000D01*
X137557142Y-100047619D01*
X137604761Y-100142857D01*
X137604761Y-100285714D01*
X137557142Y-100380952D01*
X137509523Y-100428571D01*
X137414285Y-100476190D01*
X137033333Y-100476190D01*
X130919047Y-130152380D02*
X130919047Y-129152380D01*
X131395238Y-130152380D02*
X131395238Y-129152380D01*
X131966666Y-130152380D01*
X131966666Y-129152380D01*
X132442857Y-130152380D02*
X132442857Y-129152380D01*
X132823809Y-129152380D01*
X132919047Y-129200000D01*
X132966666Y-129247619D01*
X133014285Y-129342857D01*
X133014285Y-129485714D01*
X132966666Y-129580952D01*
X132919047Y-129628571D01*
X132823809Y-129676190D01*
X132442857Y-129676190D01*
X133442857Y-129152380D02*
X133442857Y-129961904D01*
X133490476Y-130057142D01*
X133538095Y-130104761D01*
X133633333Y-130152380D01*
X133823809Y-130152380D01*
X133919047Y-130104761D01*
X133966666Y-130057142D01*
X134014285Y-129961904D01*
X134014285Y-129152380D01*
X134347619Y-129152380D02*
X134919047Y-129152380D01*
X134633333Y-130152380D02*
X134633333Y-129152380D01*
X135966666Y-129104761D02*
X135109523Y-130390476D01*
X136157142Y-129152380D02*
X136728571Y-129152380D01*
X136442857Y-130152380D02*
X136442857Y-129152380D01*
X137061904Y-130152380D02*
X137061904Y-129152380D01*
X137061904Y-129628571D02*
X137633333Y-129628571D01*
X137633333Y-130152380D02*
X137633333Y-129152380D01*
X138680952Y-130152380D02*
X138347619Y-129676190D01*
X138109523Y-130152380D02*
X138109523Y-129152380D01*
X138490476Y-129152380D01*
X138585714Y-129200000D01*
X138633333Y-129247619D01*
X138680952Y-129342857D01*
X138680952Y-129485714D01*
X138633333Y-129580952D01*
X138585714Y-129628571D01*
X138490476Y-129676190D01*
X138109523Y-129676190D01*
X139109523Y-129152380D02*
X139109523Y-129961904D01*
X139157142Y-130057142D01*
X139204761Y-130104761D01*
X139300000Y-130152380D01*
X139490476Y-130152380D01*
X139585714Y-130104761D01*
X139633333Y-130057142D01*
X139680952Y-129961904D01*
X139680952Y-129152380D01*
X130995238Y-124671428D02*
X131757142Y-124671428D01*
X132757142Y-125052380D02*
X132185714Y-125052380D01*
X132471428Y-125052380D02*
X132471428Y-124052380D01*
X132376190Y-124195238D01*
X132280952Y-124290476D01*
X132185714Y-124338095D01*
X133900000Y-125004761D02*
X134042857Y-125052380D01*
X134280952Y-125052380D01*
X134376190Y-125004761D01*
X134423809Y-124957142D01*
X134471428Y-124861904D01*
X134471428Y-124766666D01*
X134423809Y-124671428D01*
X134376190Y-124623809D01*
X134280952Y-124576190D01*
X134090476Y-124528571D01*
X133995238Y-124480952D01*
X133947619Y-124433333D01*
X133900000Y-124338095D01*
X133900000Y-124242857D01*
X133947619Y-124147619D01*
X133995238Y-124100000D01*
X134090476Y-124052380D01*
X134328571Y-124052380D01*
X134471428Y-124100000D01*
X135376190Y-125052380D02*
X134900000Y-125052380D01*
X134900000Y-124052380D01*
X135709523Y-124528571D02*
X136042857Y-124528571D01*
X136185714Y-125052380D02*
X135709523Y-125052380D01*
X135709523Y-124052380D01*
X136185714Y-124052380D01*
X136614285Y-124528571D02*
X136947619Y-124528571D01*
X137090476Y-125052380D02*
X136614285Y-125052380D01*
X136614285Y-124052380D01*
X137090476Y-124052380D01*
X137376190Y-124052380D02*
X137709523Y-125052380D01*
X138042857Y-124052380D01*
X138376190Y-124528571D02*
X138709523Y-124528571D01*
X138852380Y-125052380D02*
X138376190Y-125052380D01*
X138376190Y-124052380D01*
X138852380Y-124052380D01*
M02*
